# xmcd
#
# Track frame offsets:
#	150
#	11986
#	23279
#	35511
#	48508
#	62707
#	76702
#	89091
#	102602
#	113408
#	123483
#	134126
#	146829
#	158700
#	168910
#	180628
#	194424
#	206401
#	218810
#	233061
#
# Disc length: 3282 seconds
# Revision: 1
# Processed by: cddbd v1.5.2PL0 Copyright (c) Steve Scherf et al.
# Submitted via: dBpowerAMP V12.0
#
DISCID=180cd014
DTITLE=Various Artist - Spirit Of Country - disque 02
DYEAR=1972
DGENRE=International 1970-1979
TTITLE0=Billie Jo Spears - Look What They've Done To my Song ma
TTITLE1=Elvis Presley - I Forgot To Remember To Forget
TTITLE2=Frankie Lane - High Noon
TTITLE3=Hank Williams - Jambalaya
TTITLE4=Jerry Lee Lewis - Cold Cold Heart
TTITLE5=Lee Greenwood - Dixie Road
TTITLE6=Roy Orbison - I Can't Stop Loving You
TTITLE7=Willie Nelson - The Last Letter
TTITLE8=Dolly Parton - It Wasn't God Who Made Honky Tonk Angels
TTITLE9=Freddy Cannon - Talahassie Lassie
TTITLE10=Johnny Tillotson - I Can't Help It
TTITLE11=Porter Wagoner - A Satisfied Mind
TTITLE12=Jim Reeves - Mexican Joe
TTITLE13=Ferlin Husky - Gone
TTITLE14=Donna Fargo - The Happiest Girl In The U.S.A.
TTITLE15=Johnny Paycheck - Someone To Give My Love To
TTITLE16=Marty Robbins - I'll Go Alone
TTITLE17=Lacy J. Dalton - Dream Baby
TTITLE18=The Hot Billys - Cotton Eyed Joe
TTITLE19=Alabama - Patches
EXTD=
EXTT0=
EXTT1=
EXTT2=
EXTT3=
EXTT4=
EXTT5=
EXTT6=
EXTT7=
EXTT8=
EXTT9=
EXTT10=
EXTT11=
EXTT12=
EXTT13=
EXTT14=
EXTT15=
EXTT16=
EXTT17=
EXTT18=
EXTT19=
PLAYORDER=
